<?xml version="1.0" encoding="UTF-8"?>
<svg width="100" height="120" viewBox="0 0 100 120" version="1.1" xmlns="http://www.w3.org/2000/svg">
    <path d="M50 0C22.4 0 0 22.4 0 50s22.4 50 50 50 50-22.4 50-50S77.6 0 50 0zm0 90c-22.1 0-40-17.9-40-40S27.9 10 50 10s40 17.9 40 40-17.9 40-40 40z" fill="#000000" fill-opacity="0.3"/>
    <path d="M50 20c-16.5 0-30 13.5-30 30s13.5 30 30 30 30-13.5 30-30-13.5-30-30-30zm0 50c-11 0-20-9-20-20s9-20 20-20 20 9 20 20-9 20-20 20z" fill="#000000" fill-opacity="0.3"/>
</svg> 